<svg xmlns="http://www.w3.org/2000/svg" version="1.1" xmlns:xlink="http://www.w3.org/1999/xlink" xmlns:svgjs="http://svgjs.dev/svgjs" width="100%" height="100%" viewBox="0 0 1000 600"><rect width="1000" height="600" x="0" y="0" fill="#000000"/><g><circle r="166.66666666666666" cx="222.22225443522134" cy="244.44447157118097" fill="#000000" transform="matrix(2.25000013732911,0,0,2.25000013732911,0,-250.00002975464122)"/><path d="M294.1587123236751 317.5613589132412L294.1587123236751 317.5613589132412Q277.35151693390515 315.00374222349365 260.7129556115911 313.6546696838465Q244.04628861136771 312.33370282210876 226.95803644250466 312.33370282210876L226.95803644250466 312.33370282210876Q207.90238681998957 312.33370282210876 188.76242016374655 314.02004349666765Q169.65055918541287 315.6782784933172 150.28574710589533 319.4444393331653L150.28574710589533 319.4444393331653Q155.11992370629736 315.6782784933172 160.01031166251806 312.13696307674354Q164.90069961873874 308.56754198226065 170.1564613877805 305.41970605641745L170.1564613877805 305.41970605641745Q172.40491562052566 291.9851920157652 173.5010370589889 278.94415746584343Q174.59715849745217 265.8750172380123 174.59715849745217 252.63724294272527L174.59715849745217 252.63724294272527Q174.59715849745217 232.99137408411457 172.3205985867977 213.76709039414362Q170.04403867614326 194.54280670417268 166.08113809092993 175.48715708165759L166.08113809092993 175.48715708165759Q168.1609582562192 175.68389682702275 170.38130681105503 175.71200250493212Q172.60165536589085 175.76821386075073 174.79389824281736 175.76821386075073L174.79389824281736 175.76821386075073Q187.32903059037153 175.76821386075073 199.38636641346736 174.13808454201052Q211.44370223656318 172.50795522327024 223.501038059659 169.44443633115503L223.501038059659 169.44443633115503Q223.501038059659 197.99980508701833 220.69047026872758 226.41464545333503Q217.87990247779615 254.82948581965178 211.35938520283523 283.18811483014986L211.35938520283523 283.18811483014986Q229.8248155892547 275.065573914358 249.3020503804095 269.33201562085793Q268.75117949365494 263.62656300526714 289.6899095360941 260.1695646224215L289.6899095360941 260.1695646224215Q288.5094710639029 270.147080280228 288.5094710639029 279.7311164473042L288.5094710639029 279.7311164473042Q288.5094710639029 289.3151526143804 289.8023322477314 298.7867660698193Q291.09519343155984 308.2864852031675 294.1587123236751 317.5613589132412Z " fill="#ffffff" transform="matrix(2.25000013732911,0,0,2.25000013732911,0,-250.00002975464122)"/><path d="MNaN 244.44443766276106 " fill="white" transform="matrix(2.25000013732911,0,0,2.25000013732911,0,-250.00002975464122)"/></g></svg>